<svg width="120" height="104" viewBox="0 0 120 104" fill="none" xmlns="http://www.w3.org/2000/svg">
<g clip-path="url(#clip0_5_361)">
<path d="M116.344 53.7596H114.677L102.293 28.0265C104.107 26.7293 105.316 24.6783 105.316 22.3469C105.316 18.4379 101.982 15.2475 97.897 15.2475C95.2774 15.2475 92.9876 16.5622 91.6686 18.508H78.754C76.7206 13.2842 72.2326 9.19988 66.627 7.58717V3.78329H68.7337C69.7595 3.78329 70.6938 3.22235 71.1334 2.32835C71.5731 1.43435 71.4448 0.400115 70.7854 -0.35365L63.3297 -8.97812C62.8168 -9.55659 62.0657 -9.88965 61.278 -9.88965C60.4903 -9.88965 59.7392 -9.55659 59.2446 -8.97812L51.7889 -0.35365C51.1295 0.400115 51.0012 1.43435 51.4409 2.32835C51.8805 3.22235 52.7965 3.78329 53.8406 3.78329H55.9473V7.6047C50.3234 9.21741 45.8354 13.3018 43.802 18.5255H30.869C29.5501 16.5622 27.2602 15.2651 24.6407 15.2651C20.5556 15.2651 17.2216 18.4554 17.2216 22.3645C17.2216 24.6959 18.4307 26.7643 20.2625 28.0615L7.87911 53.7596H6.21211C4.45352 53.7596 3.00635 55.1269 3.00635 56.8273C3.00635 58.5101 4.4352 59.8949 6.21211 59.8949H6.54185C7.43946 68.5019 14.9684 75.1455 24.1094 75.1455C33.2505 75.1455 40.7794 68.5019 41.677 59.8949H43.1059C44.8645 59.8949 46.3116 58.5276 46.3116 56.8273C46.3116 55.1445 44.8828 53.7596 43.1059 53.7596H41.4389L29.0555 28.0265C29.7699 27.5181 30.3927 26.8871 30.8873 26.1683H42.6846C43.2891 33.3379 48.345 39.3154 55.1779 41.5767V82.9461H43.4723C40.3581 82.9461 37.8301 85.3652 37.8301 88.3452V91.5706H33.2871C30.3927 91.5706 28.048 93.8143 28.048 96.584V99.897H9.74761C9.25301 99.897 8.85 100.283 8.85 100.756C8.85 101.229 9.25301 101.615 9.74761 101.615H112.808C113.303 101.615 113.706 101.229 113.706 100.756C113.706 100.283 113.303 99.897 112.808 99.897H94.5447V96.584C94.5447 93.8143 92.1999 91.5706 89.3055 91.5706H84.7625V88.3452C84.7625 85.3652 82.2345 82.9461 79.1204 82.9461H67.4147V41.5767C74.2659 39.2979 79.3036 33.3379 79.9081 26.1683H91.7053C92.1999 26.8871 92.8227 27.5181 93.5555 28.0265L81.1354 53.7596H79.4684C77.7098 53.7596 76.2627 55.1269 76.2627 56.8273C76.2627 58.5101 77.6915 59.8949 79.4684 59.8949H79.7982C80.6958 68.5019 88.2247 75.1455 97.3658 75.1455C106.488 75.1455 114.036 68.5019 114.933 59.8949H116.362C118.121 59.8949 119.568 58.5276 119.568 56.8273C119.55 55.1445 118.102 53.7596 116.344 53.7596ZM92.7311 96.6015V99.9146H29.8065V96.6015C29.8065 94.7785 31.3636 93.306 33.2505 93.306H89.2689C91.1924 93.306 92.7311 94.7785 92.7311 96.6015ZM82.949 88.3627V91.5881H39.607V88.3627C39.607 86.3293 41.329 84.664 43.4723 84.664H79.0837C81.2087 84.664 82.949 86.3293 82.949 88.3627ZM97.897 16.9654C100.993 16.9654 103.521 19.3845 103.521 22.3469C103.521 24.2927 102.422 25.9931 100.791 26.9396C99.9487 27.4305 98.9778 27.7285 97.9153 27.7285C96.8711 27.7285 95.9003 27.4305 95.0576 26.9572C95.0576 26.9572 95.0576 26.9572 95.0393 26.9572C93.4089 26.0106 92.2915 24.3102 92.2915 22.3645C92.2732 19.3845 94.8011 16.9654 97.897 16.9654ZM53.0529 1.60964C52.998 1.50447 52.8514 1.11882 53.1628 0.750703L60.6185 -7.87377C60.8383 -8.13671 61.1314 -8.17177 61.278 -8.17177C61.4245 -8.17177 61.7176 -8.13671 61.9375 -7.87377L69.3932 0.750703C69.7046 1.11882 69.558 1.50447 69.5031 1.60964C69.4481 1.71482 69.2283 2.08294 68.7337 2.08294H53.804C53.3094 2.08294 53.1079 1.71482 53.0529 1.60964ZM57.7059 3.78329H64.8501V7.184C63.6961 6.97364 62.5053 6.85093 61.278 6.85093C60.0506 6.85093 58.8783 6.97364 57.7242 7.184V3.78329H57.7059ZM19.0352 22.3469C19.0352 19.3845 21.5631 16.9654 24.659 16.9654C27.7549 16.9654 30.2828 19.3845 30.2828 22.3469C30.2828 24.2927 29.1837 25.9931 27.5533 26.9396C26.7107 27.4305 25.7398 27.7285 24.6773 27.7285C23.6332 27.7285 22.6623 27.4305 21.8196 26.9572C21.8196 26.9572 21.8196 26.9572 21.8013 26.9572C20.1526 26.0106 19.0352 24.3102 19.0352 22.3469ZM24.1094 73.4276C15.9576 73.4276 9.21637 67.5553 8.33708 59.8949H39.9001C39.0025 67.5553 32.2429 73.4276 24.1094 73.4276ZM44.5164 56.8273C44.5164 57.5635 43.8753 58.177 43.1059 58.177H6.21211C5.44273 58.177 4.80158 57.5635 4.80158 56.8273C4.80158 56.091 5.44273 55.4775 6.21211 55.4775H8.42867H40.871H43.0876C43.8753 55.4775 44.5164 56.091 44.5164 56.8273ZM39.4605 53.7596H9.85752L21.8379 28.8854C22.7172 29.236 23.6515 29.4288 24.659 29.4288C25.6665 29.4288 26.6191 29.236 27.4984 28.8854L39.4605 53.7596ZM31.6934 20.2434H43.2158C42.8494 21.5932 42.6296 23.0131 42.6113 24.468H31.6934C31.9132 23.8019 32.0597 23.1007 32.0597 22.3645C32.0597 21.6107 31.9132 20.9095 31.6934 20.2434ZM65.5829 82.9461H56.9731V42.085C58.347 42.4006 59.7942 42.5759 61.278 42.5759C62.7618 42.5759 64.209 42.383 65.5829 42.0675V82.9461ZM61.278 40.8755C52.1919 40.8755 44.7729 33.9514 44.4248 25.3269C44.4248 25.1166 44.3882 24.9238 44.3882 24.7134C44.3882 15.8085 51.9538 8.56882 61.2597 8.56882C70.5656 8.56882 78.1495 15.8085 78.1495 24.7134C78.1678 33.6183 70.5839 40.8755 61.278 40.8755ZM79.9447 24.468C79.9264 23.0131 79.7066 21.5932 79.3402 20.2434H90.8626C90.6428 20.9095 90.4963 21.6107 90.4963 22.3469C90.4963 23.0832 90.6428 23.7843 90.8626 24.4505H79.9447V24.468ZM95.0759 28.9029C95.9552 29.2535 96.8895 29.4463 97.897 29.4463C98.9045 29.4463 99.8571 29.2535 100.736 28.9029L112.698 53.7772H83.0955L95.0759 28.9029ZM97.3474 73.4276C89.2139 73.4276 82.4544 67.5553 81.5751 59.8949H113.138C112.259 67.5553 105.499 73.4276 97.3474 73.4276ZM116.344 58.177H79.4501C78.6807 58.177 78.0396 57.5635 78.0396 56.8273C78.0396 56.091 78.6807 55.4775 79.4501 55.4775H116.326C117.095 55.4775 117.736 56.091 117.736 56.8273C117.754 57.581 117.113 58.177 116.344 58.177Z" fill="#00EC86"/>
<path d="M61.2781 11.5664C53.6941 11.5664 47.5391 17.4563 47.5391 24.7135C47.5391 31.9706 53.6941 37.878 61.2781 37.878C68.862 37.878 75.0354 31.9706 75.0354 24.7135C75.017 17.4563 68.862 11.5664 61.2781 11.5664ZM61.2781 36.1602C54.6833 36.1602 49.3343 31.024 49.3343 24.7135C49.3343 18.4029 54.7017 13.2843 61.2781 13.2843C67.8728 13.2843 73.2401 18.4204 73.2401 24.7135C73.2218 31.024 67.8728 36.1602 61.2781 36.1602Z" fill="#00EC86"/>
<path d="M61.2782 20.3131C62.3041 20.3131 63.1284 21.1019 63.1284 22.0836C63.1284 22.5569 63.5314 22.9425 64.026 22.9425C64.5206 22.9425 64.9236 22.5569 64.9236 22.0836C64.9236 20.4533 63.7512 19.1036 62.1758 18.7179V17.8765C62.1758 17.4032 61.7728 17.0176 61.2782 17.0176C60.7836 17.0176 60.3806 17.4032 60.3806 17.8765V18.7179C58.8052 19.1036 57.6328 20.4533 57.6328 22.0836C57.6328 24.0118 59.2632 25.5719 61.2782 25.5719C62.3041 25.5719 63.1284 26.3608 63.1284 27.3424C63.1284 28.324 62.3041 29.1129 61.2782 29.1129C60.2524 29.1129 59.428 28.324 59.428 27.3424C59.428 26.8691 59.025 26.4835 58.5304 26.4835C58.0358 26.4835 57.6328 26.8691 57.6328 27.3424C57.6328 28.9726 58.8052 30.3224 60.3806 30.708V31.5495C60.3806 32.0227 60.7836 32.4084 61.2782 32.4084C61.7728 32.4084 62.1758 32.0227 62.1758 31.5495V30.708C63.7512 30.3224 64.9236 28.9726 64.9236 27.3424C64.9236 25.4142 63.2933 23.854 61.2782 23.854C60.2524 23.854 59.428 23.0652 59.428 22.0836C59.428 21.1019 60.2524 20.3131 61.2782 20.3131Z" fill="#00EC86"/>
</g>
<defs>
<clipPath id="clip0_5_361">
<rect width="118.532" height="102.968" fill="white" transform="translate(0.826172 0.750977)"/>
</clipPath>
</defs>
</svg>
