<svg width="68" height="68" viewBox="0 0 68 68" fill="none" xmlns="http://www.w3.org/2000/svg">
<path fill-rule="evenodd" clip-rule="evenodd" d="M66.5832 56.6663C66.5832 60.5791 63.4127 63.7496 59.4998 63.7496H8.49984C4.587 63.7496 1.4165 60.5791 1.4165 56.6663V15.583C1.4165 12.4535 3.95375 9.91629 7.08317 9.91629H35.6588L47.1323 5.75979C47.8591 5.49487 48.6637 5.87029 48.9287 6.59421L50.1371 9.91629H55.2498C58.3793 9.91629 60.9165 12.4535 60.9165 15.583V18.4163C64.0459 18.4163 66.5832 20.9535 66.5832 24.083V56.6663ZM7.08317 12.7496C5.51917 12.7496 4.24984 14.019 4.24984 15.583C4.24984 17.147 5.51917 18.4163 7.08317 18.4163H11.9636H12.2313C12.2498 18.4092 12.2611 18.3936 12.2795 18.3865L27.8373 12.7496H7.08317ZM48.277 13.006L46.7725 8.86371L43.8655 9.91629H43.8698L36.0583 12.7496H36.0441L20.4055 18.4163H50.2433L48.277 13.006ZM58.0832 15.583C58.0832 14.019 56.8138 12.7496 55.2498 12.7496H51.1656L53.2254 18.4163H58.0832V15.583ZM60.9165 21.2496H7.08317C6.04617 21.2496 5.08567 20.9507 4.24984 20.4634V56.6663C4.24984 59.0137 6.15384 60.9163 8.49984 60.9163H59.4998C61.8473 60.9163 63.7498 59.0137 63.7498 56.6663V46.7496H58.0832C54.9538 46.7496 52.4165 44.2124 52.4165 41.083C52.4165 37.9535 54.9538 35.4163 58.0832 35.4163H63.7498V24.083C63.7498 22.519 62.4805 21.2496 60.9165 21.2496ZM63.7498 43.9163V38.2496H58.0832C56.5192 38.2496 55.2498 39.519 55.2498 41.083C55.2498 42.647 56.5192 43.9163 58.0832 43.9163H63.7498ZM58.0832 39.6663H60.9165V42.4996H58.0832V39.6663Z" fill="#ECECEC"/>
</svg>
