<svg width="16" height="16" viewBox="0 0 16 16" fill="none" xmlns="http://www.w3.org/2000/svg">
<path d="M2.2253 0.811445C1.83477 0.420925 1.20161 0.420925 0.811078 0.811445C0.420558 1.20197 0.420558 1.83513 0.811078 2.22566L6.5858 8.00036L0.811139 13.7751C0.420619 14.1656 0.420619 14.7988 0.811139 15.1893C1.20167 15.5798 1.83483 15.5798 2.22535 15.1893L8 9.41456L13.7747 15.1893C14.1652 15.5798 14.7984 15.5798 15.1889 15.1893C15.5794 14.7988 15.5794 14.1656 15.1889 13.7751L9.4142 8.00036L15.189 2.22566C15.5795 1.83513 15.5795 1.20197 15.189 0.811445C14.7985 0.420925 14.1653 0.420925 13.7748 0.811445L8 6.58616L2.2253 0.811445Z" fill="#ECECEC"/>
</svg>
