<svg width="56" height="58" viewBox="0 0 56 58" fill="none" xmlns="http://www.w3.org/2000/svg">
<path fill-rule="evenodd" clip-rule="evenodd" d="M27.994 5.55469C14.5592 5.55469 3.66504 16.6411 3.66504 30.3179C3.66504 41.259 10.6361 50.5413 20.3027 53.8158C21.5184 54.045 21.9649 53.2784 21.9649 52.6245C21.9649 52.0343 21.9426 50.0832 21.932 48.014C15.1637 49.5121 13.7355 45.0922 13.7355 45.0922C12.6287 42.2301 11.0343 41.4688 11.0343 41.4688C8.82671 39.9318 11.2007 39.9635 11.2007 39.9635C13.6435 40.1382 14.9301 42.5158 14.9301 42.5158C17.0999 46.3013 20.6214 45.2068 22.0099 44.574C22.2283 42.9737 22.8585 41.881 23.5545 41.2626C18.1507 40.6367 12.4699 38.5131 12.4699 29.0245C12.4699 26.3211 13.4204 24.112 14.9768 22.3777C14.7243 21.7538 13.8914 19.2353 15.2126 15.8241C15.2126 15.8241 17.2556 15.159 21.9044 18.3628C23.8452 17.8141 25.9266 17.5389 27.9941 17.5293C30.0615 17.5389 32.1444 17.8141 34.0886 18.3628C38.7323 15.159 40.7725 15.8241 40.7725 15.8241C42.0967 19.2353 41.2638 21.7538 41.0112 22.3777C42.5712 24.112 43.515 26.321 43.515 29.0245C43.515 38.5359 37.8236 40.6298 32.4059 41.243C33.2785 42.0115 34.0559 43.5185 34.0559 45.8287C34.0559 49.1421 34.0281 51.8088 34.0281 52.6245C34.0281 53.2836 34.4659 54.0559 35.6989 53.8128C45.3606 50.5346 52.3228 41.2555 52.3228 30.3179C52.3228 16.6411 41.4301 5.55469 27.994 5.55469Z" fill="#00EC86"/>
<path d="M12.8796 41.1092C12.8261 41.2325 12.6357 41.2693 12.4626 41.1849C12.2859 41.104 12.1872 40.9362 12.2442 40.8129C12.2965 40.6862 12.4869 40.651 12.6632 40.7356C12.8399 40.8165 12.9407 40.9858 12.8796 41.1092Z" fill="#00EC86"/>
<path d="M13.8654 42.2282C13.7495 42.3374 13.5223 42.2866 13.3684 42.1137C13.2091 41.9409 13.1796 41.7098 13.2974 41.599C13.417 41.4897 13.637 41.5408 13.7962 41.7136C13.9556 41.8882 13.9866 42.1173 13.8654 42.2282Z" fill="#00EC86"/>
<path d="M14.8247 43.6542C14.6755 43.7599 14.4316 43.6609 14.2809 43.4407C14.1317 43.2204 14.1317 42.9562 14.2843 42.8504C14.4351 42.7447 14.6755 42.8399 14.8282 43.0583C14.9769 43.2823 14.9769 43.5466 14.8247 43.6542Z" fill="#00EC86"/>
<path d="M16.1385 45.0322C16.005 45.1819 15.7209 45.1414 15.5133 44.9372C15.3004 44.7378 15.2414 44.4544 15.3747 44.3045C15.5102 44.1547 15.7958 44.1967 16.005 44.3994C16.2163 44.5988 16.2804 44.8839 16.1385 45.0322Z" fill="#00EC86"/>
<path d="M17.9517 45.8325C17.8927 46.0262 17.6193 46.1143 17.3438 46.0319C17.0684 45.9469 16.8887 45.7199 16.9441 45.524C17.0011 45.3287 17.276 45.237 17.5534 45.3251C17.8285 45.4095 18.0087 45.635 17.9517 45.8325Z" fill="#00EC86"/>
<path d="M19.9427 45.9805C19.9494 46.1847 19.7157 46.3541 19.4266 46.3578C19.1358 46.3645 18.9 46.1992 18.897 45.9982C18.897 45.7918 19.1254 45.6244 19.4163 45.6193C19.7054 45.6137 19.9427 45.7778 19.9427 45.9805Z" fill="#00EC86"/>
<path d="M21.7953 45.6596C21.8299 45.8587 21.6287 46.0633 21.3414 46.1178C21.059 46.1707 20.7979 46.0473 20.7617 45.8499C20.7267 45.6457 20.9312 45.441 21.2134 45.3882C21.501 45.3373 21.7587 45.4569 21.7953 45.6596Z" fill="#00EC86"/>
</svg>
