<?xml version="1.0" encoding="UTF-8"?>
<svg id="Calque_1" xmlns="http://www.w3.org/2000/svg" version="1.1" viewBox="0 0 167.4 50">
  <!-- Generator: Adobe Illustrator 29.2.1, SVG Export Plug-In . SVG Version: 2.1.0 Build 116)  -->
  <defs>
    <style>
      .st0 {
        fill: #f74949;
      }

      .st1 {
        fill: #ececec;
      }

      .st2 {
        fill: #00ec86;
      }
    </style>
  </defs>
  <g>
    <circle class="st0" cx="138.9" cy="31.6" r="10.7"/>
    <circle class="st2" cx="152.5" cy="15.1" r="10.7"/>
  </g>
  <g>
    <path class="st1" d="M12.4,27v15.1h-5.9V6.6h23v4.8H12.4v10.7h15v4.8h-15Z"/>
    <path class="st1" d="M51.5,4.7v32.6h8v4.8h-22.2v-4.8h8.3V9.5h-8.3v-4.8s14.2,0,14.2,0Z"/>
    <path class="st1" d="M65.8,23.3c.6-1.6,1.3-3,2.4-4.2,1-1.2,2.3-2.1,3.8-2.8s3.2-1,5.2-1,3.7.3,5.2,1,2.8,1.6,3.9,2.8c1,1.2,1.8,2.6,2.4,4.2s.8,3.4.8,5.3v.5c0,1.9-.3,3.7-.8,5.3s-1.3,3-2.4,4.2-2.3,2.1-3.8,2.8-3.2,1-5.2,1-3.7-.3-5.2-1-2.8-1.6-3.8-2.8c-1.1-1.2-1.9-2.6-2.4-4.2s-.8-3.4-.8-5.3v-.5c0-1.9.3-3.7.8-5.3ZM71.2,32.5c.2,1,.7,2,1.2,2.8.5.8,1.2,1.4,2,1.9s1.8.7,2.9.7,2-.2,2.8-.7,1.5-1.1,2-1.9.9-1.7,1.2-2.8.4-2.2.4-3.4v-.5c0-1.1-.1-2.3-.4-3.3s-.6-2-1.1-2.8c-.5-.8-1.2-1.4-2-1.9s-1.8-.7-2.9-.7-2.1.2-2.9.7-1.5,1.1-2,1.9c-.5.8-.9,1.7-1.2,2.8s-.4,2.2-.4,3.3v.5c0,1.2.1,2.3.4,3.4h0Z"/>
    <path class="st1" d="M93.1,15.7h5.3l2.4,16.1.4,3,.5-3,3.4-16.1h3.8l3.4,16.1.6,3.2.5-3.2,2.4-16.1h5.3l-5.1,26.3h-4.9l-3.4-15-.6-3.3-.6,3.3-3.3,15h-4.9l-5.1-26.3h0Z"/>
  </g>
</svg>