<svg width="46" height="46" viewBox="0 0 46 46" fill="none" xmlns="http://www.w3.org/2000/svg">
<path d="M20.8438 40.9688C16.65 40.9688 12.628 39.3028 9.66262 36.3374C6.69721 33.372 5.03125 29.35 5.03125 25.1562C5.03125 20.9625 6.69721 16.9405 9.66262 13.9751C12.628 11.0097 16.65 9.34375 20.8438 9.34375C21.0344 9.34375 21.2172 9.41948 21.352 9.55427C21.4868 9.68906 21.5625 9.87188 21.5625 10.0625V24.4375H35.9375C36.1281 24.4375 36.3109 24.5132 36.4457 24.648C36.5805 24.7828 36.6562 24.9656 36.6562 25.1562C36.6562 27.2328 36.2472 29.289 35.4526 31.2074C34.6579 33.1259 33.4932 34.8691 32.0249 36.3374C30.5566 37.8057 28.8134 38.9704 26.8949 39.7651C24.9765 40.5597 22.9203 40.9688 20.8438 40.9688ZM20.125 10.7812C17.3484 10.9239 14.6727 11.8687 12.4222 13.5012C10.1716 15.1337 8.44279 17.3838 7.4451 19.9789C6.44741 22.574 6.2237 25.4028 6.80106 28.1225C7.37842 30.8421 8.73207 33.336 10.698 35.302C12.664 37.2679 15.1579 38.6216 17.8775 39.1989C20.5972 39.7763 23.426 39.5526 26.0211 38.5549C28.6162 37.5572 30.8663 35.8284 32.4988 33.5778C34.1313 31.3273 35.0761 28.6516 35.2188 25.875H20.8438C20.6531 25.875 20.4703 25.7993 20.3355 25.6645C20.2007 25.5297 20.125 25.3469 20.125 25.1562V10.7812Z" fill="#FBFBFB"/>
<path d="M40.25 21.5625H25.1562C24.9656 21.5625 24.7828 21.4868 24.648 21.352C24.5132 21.2172 24.4375 21.0344 24.4375 20.8438V5.75C24.4375 5.55938 24.5132 5.37656 24.648 5.24177C24.7828 5.10698 24.9656 5.03125 25.1562 5.03125C29.35 5.03125 33.372 6.69721 36.3374 9.66262C39.3028 12.628 40.9688 16.65 40.9688 20.8438C40.9688 21.0344 40.893 21.2172 40.7582 21.352C40.6234 21.4868 40.4406 21.5625 40.25 21.5625ZM25.875 20.125H39.5312C39.357 16.5594 37.8623 13.1862 35.338 10.662C32.8138 8.1377 29.4406 6.64299 25.875 6.46875V20.125Z" fill="#FBFBFB"/>
</svg>
