<svg width="100" height="100" viewBox="0 0 100 100" fill="none" xmlns="http://www.w3.org/2000/svg">
<path d="M24.1999 81.5H56.4999C59.4999 81.5 61.8999 79.1 61.8999 76.1V60.4C61.8999 59.8 61.4999 59.4 60.8999 59.4C60.2999 59.4 59.8999 59.8 59.8999 60.4V76.1C59.8999 78 58.3999 79.5 56.4999 79.5H24.1999C22.2999 79.5 20.7999 78 20.7999 76.1V23.9C20.7999 22 22.2999 20.5 24.1999 20.5H56.4999C58.3999 20.5 59.8999 22 59.8999 23.9V40.2C59.8999 40.8 60.2999 41.2 60.8999 41.2C61.4999 41.2 61.8999 40.8 61.8999 40.2V23.9C61.8999 20.9 59.4999 18.5 56.4999 18.5H24.1999C21.1999 18.5 18.7999 20.9 18.7999 23.9V76.1C18.6999 79.1 21.1999 81.5 24.1999 81.5Z" fill="#FBFBFB"/>
<path d="M46.1002 51.2002H80.2002C80.8002 51.2002 81.2002 50.8002 81.2002 50.2002C81.2002 49.6002 80.8002 49.2002 80.2002 49.2002H46.1002C45.5002 49.2002 45.1002 49.6002 45.1002 50.2002C45.1002 50.8002 45.5002 51.2002 46.1002 51.2002Z" fill="#FBFBFB"/>
<path d="M80.2998 51.1998C80.5998 51.1998 80.7998 51.0998 80.9998 50.8998C81.3998 50.4998 81.3998 49.8998 80.9998 49.4998L73.5998 42.0998C73.1998 41.6998 72.5998 41.6998 72.1998 42.0998C71.7998 42.4998 71.7998 43.0998 72.1998 43.4998L79.5998 50.8998C79.6998 51.0998 79.9998 51.1998 80.2998 51.1998Z" fill="#FBFBFB"/>
<path d="M72.4002 58.9998C72.7002 58.9998 72.9002 58.8998 73.1002 58.6998L80.9002 50.9998C81.3002 50.5998 81.3002 49.9998 80.9002 49.5998C80.5002 49.1998 79.9002 49.1998 79.5002 49.5998L71.7002 57.3998C71.3002 57.7998 71.3002 58.3998 71.7002 58.7998C71.9002 58.8998 72.2002 58.9998 72.4002 58.9998Z" fill="#FBFBFB"/>
</svg>
