<svg width="64" height="64" viewBox="0 0 64 64" fill="none" xmlns="http://www.w3.org/2000/svg">
<path d="M32.0004 60.6102C28.1544 60.6102 24.3542 59.7749 20.8626 58.1621C17.371 56.5493 14.2714 54.1974 11.778 51.269C9.28461 48.3407 7.45693 44.9058 6.42135 41.2017C5.38576 37.4977 5.16697 33.613 5.7801 29.8161C6.39324 26.0192 7.82367 22.4008 9.97249 19.211C12.1213 16.0212 14.9373 13.3361 18.2257 11.3414C21.514 9.34677 25.1964 8.09005 29.0182 7.6582C32.8399 7.22635 36.7098 7.62965 40.3604 8.84024C40.5533 8.90489 40.7308 9.00833 40.8822 9.14419C41.0335 9.28006 41.1554 9.44547 41.2404 9.63024C41.3246 9.81731 41.3681 10.0201 41.3681 10.2252C41.3681 10.4304 41.3246 10.6332 41.2404 10.8202C40.9085 11.6677 40.7389 12.5701 40.7404 13.4802C40.7386 14.7951 41.1029 16.0845 41.7926 17.2039C42.4822 18.3234 43.47 19.2286 44.6452 19.8183C45.8204 20.408 47.1366 20.6588 48.4463 20.5425C49.756 20.4263 51.0074 19.9477 52.0604 19.1602C52.2249 19.0395 52.4122 18.9534 52.6109 18.907C52.8097 18.8607 53.0157 18.8551 53.2167 18.8906C53.4176 18.9261 53.6093 19.002 53.7801 19.1137C53.9509 19.2253 54.0973 19.3704 54.2104 19.5402C56.8227 23.5452 58.3053 28.1812 58.5018 32.9588C58.6983 37.7364 57.6014 42.4784 55.3269 46.6844C53.0523 50.8904 49.6845 54.4044 45.5789 56.8554C41.4732 59.3065 36.7821 60.6037 32.0004 60.6102ZM32.0004 10.5002C27.1023 10.4996 22.3259 12.0262 18.3361 14.8676C14.3463 17.709 11.3418 21.7237 9.74082 26.3528C8.13984 30.9819 8.02208 35.995 9.40393 40.6941C10.7858 45.3933 13.5985 49.5447 17.4504 52.5702C18.5633 53.4405 19.7513 54.2102 21.0004 54.8702C24.3889 56.6661 28.1655 57.605 32.0004 57.605C35.8354 57.605 39.612 56.6661 43.0004 54.8702C44.2461 54.2097 45.4307 53.44 46.5404 52.5702C50.9829 49.0988 54.032 44.1483 55.1331 38.6189C56.2342 33.0896 55.3142 27.3487 52.5404 22.4402C50.9994 23.2383 49.2785 23.6254 47.5441 23.5642C45.8098 23.5029 44.1205 22.9953 42.6396 22.0905C41.1587 21.1857 39.9362 19.9142 39.0903 18.3989C38.2443 16.8836 37.8035 15.1757 37.8104 13.4402C37.796 12.7122 37.8597 11.9847 38.0004 11.2702C36.0414 10.7589 34.0251 10.5001 32.0004 10.5002Z" fill="#ECECEC"/>
<path d="M31.9996 41.6601C30.6272 41.6502 29.2884 41.2342 28.1521 40.4646C27.0158 39.6949 26.1328 38.606 25.6144 37.3353C25.096 36.0645 24.9655 34.6687 25.2393 33.3238C25.5131 31.979 26.1789 30.7453 27.1529 29.7783C28.1268 28.8113 29.3652 28.1543 30.712 27.8902C32.0588 27.626 33.4536 27.7666 34.7207 28.294C35.9877 28.8215 37.0702 29.7123 37.8317 30.8541C38.5932 31.9959 38.9996 33.3376 38.9996 34.7101C38.9864 36.5579 38.2431 38.3256 36.9318 39.6275C35.6204 40.9295 33.8475 41.6601 31.9996 41.6601ZM31.9996 30.7601C31.2206 30.7699 30.4619 31.01 29.8189 31.4499C29.1759 31.8899 28.6774 32.5102 28.3861 33.2328C28.0948 33.9554 28.0237 34.748 28.1817 35.5109C28.3397 36.2738 28.7198 36.9729 29.2742 37.5203C29.8285 38.0678 30.5324 38.439 31.2972 38.5874C32.062 38.7358 32.8537 38.6548 33.5725 38.3544C34.2914 38.054 34.9054 37.5477 35.3372 36.8993C35.7691 36.2508 35.9995 35.4892 35.9996 34.7101C35.9865 33.6579 35.5592 32.6533 34.8105 31.9139C34.0618 31.1746 33.0519 30.76 31.9996 30.7601Z" fill="#ECECEC"/>
<path d="M32.0003 60.61C27.67 60.6098 23.4058 59.5489 19.5803 57.52C19.3382 57.3898 19.136 57.1964 18.9952 56.9605C18.8543 56.7245 18.78 56.4548 18.7803 56.18C18.7803 52.6738 20.1731 49.3112 22.6523 46.832C25.1316 44.3528 28.4941 42.96 32.0003 42.96C35.5064 42.96 38.869 44.3528 41.3482 46.832C43.8275 49.3112 45.2203 52.6738 45.2203 56.18C45.2205 56.4548 45.1462 56.7245 45.0054 56.9605C44.8645 57.1964 44.6623 57.3898 44.4203 57.52C40.5948 59.5489 36.3305 60.6098 32.0003 60.61ZM21.8303 55.3C25.0117 56.7967 28.4843 57.5728 32.0003 57.5728C35.5162 57.5728 38.9888 56.7967 42.1703 55.3C41.9198 52.7767 40.7401 50.4366 38.8606 48.7345C36.9811 47.0323 34.536 46.0897 32.0003 46.0897C29.4646 46.0897 27.0194 47.0323 25.1399 48.7345C23.2604 50.4366 22.0808 52.7767 21.8303 55.3Z" fill="#ECECEC"/>
<path d="M47.8505 23.5701C45.452 23.5772 43.1295 22.7297 41.2993 21.1796C39.4691 19.6295 38.2509 17.4781 37.8632 15.1112C37.4755 12.7443 37.9436 10.3167 39.1836 8.26361C40.4236 6.21057 42.3544 4.66638 44.6298 3.90792C46.9051 3.14947 49.3763 3.22635 51.6001 4.12478C53.8239 5.02321 55.655 6.68444 56.765 8.81059C57.8749 10.9367 58.1912 13.3888 57.6571 15.727C57.1231 18.0652 55.7735 20.1367 53.8505 21.5701C52.1195 22.8683 50.0142 23.5701 47.8505 23.5701ZM47.8505 6.39009C46.4356 6.38797 45.0526 6.80982 43.8797 7.60122C42.7069 8.39262 41.7981 9.51726 41.2705 10.8301C40.9377 11.6739 40.768 12.5731 40.7705 13.4801C40.7705 14.8828 41.1866 16.254 41.9661 17.4201C42.7456 18.5863 43.8535 19.495 45.1496 20.0314C46.4457 20.5677 47.8717 20.7075 49.2473 20.4331C50.6229 20.1587 51.8862 19.4825 52.8774 18.4899C53.8686 17.4974 54.543 16.2331 54.8155 14.8571C55.0879 13.4812 54.9461 12.0553 54.4079 10.7599C53.8697 9.46458 52.9594 8.35797 51.7922 7.58011C50.6249 6.80225 49.2532 6.38811 47.8505 6.39009Z" fill="#ECECEC"/>
<path d="M48 17.3999C47.6022 17.3999 47.2206 17.2419 46.9393 16.9606C46.658 16.6793 46.5 16.2977 46.5 15.8999V11.4199C46.5 11.0221 46.658 10.6406 46.9393 10.3593C47.2206 10.078 47.6022 9.91992 48 9.91992C48.3978 9.91992 48.7794 10.078 49.0607 10.3593C49.342 10.6406 49.5 11.0221 49.5 11.4199V15.8999C49.5 16.2977 49.342 16.6793 49.0607 16.9606C48.7794 17.2419 48.3978 17.3999 48 17.3999Z" fill="#ECECEC"/>
<path d="M50.2105 15.1602H45.7305C45.3326 15.1602 44.9511 15.0021 44.6698 14.7208C44.3885 14.4395 44.2305 14.058 44.2305 13.6602C44.2305 13.2623 44.3885 12.8808 44.6698 12.5995C44.9511 12.3182 45.3326 12.1602 45.7305 12.1602H50.2105C50.6083 12.1602 50.9898 12.3182 51.2711 12.5995C51.5524 12.8808 51.7105 13.2623 51.7105 13.6602C51.7105 14.058 51.5524 14.4395 51.2711 14.7208C50.9898 15.0021 50.6083 15.1602 50.2105 15.1602Z" fill="#ECECEC"/>
</svg>
