<svg width="118" height="98" viewBox="0 0 118 98" fill="none" xmlns="http://www.w3.org/2000/svg">
<g clip-path="url(#clip0_5_202)">
<path d="M114.528 50.4515H112.883L100.666 25.9599C102.455 24.7253 103.648 22.7733 103.648 20.5544C103.648 16.8339 100.358 13.7975 96.328 13.7975C93.7435 13.7975 91.4843 15.0487 90.183 16.9006H77.4413C75.4351 11.9289 71.0071 8.04159 65.4766 6.50669V2.88633H67.5551C68.5672 2.88633 69.4889 2.35245 69.9227 1.50158C70.3565 0.650711 70.2299 -0.333626 69.5793 -1.05102L62.2234 -9.2594C61.7173 -9.80996 60.9763 -10.127 60.1992 -10.127C59.422 -10.127 58.681 -9.80996 58.193 -9.2594L50.8371 -1.05102C50.1865 -0.333626 50.06 0.650711 50.4937 1.50158C50.9275 2.35245 51.8312 2.88633 52.8614 2.88633H54.9398V6.52337C49.3913 8.05827 44.9633 11.9456 42.9571 16.9173H30.1972C28.896 15.0487 26.6368 13.8141 24.0523 13.8141C20.0219 13.8141 16.7325 16.8506 16.7325 20.571C16.7325 22.79 17.9254 24.7586 19.7327 25.9932L7.51506 50.4515H5.87037C4.13532 50.4515 2.70752 51.7529 2.70752 53.3712C2.70752 54.9728 4.11725 56.2908 5.87037 56.2908H6.1957C7.0813 64.4825 14.5095 70.8056 23.5281 70.8056C32.5468 70.8056 39.975 64.4825 40.8606 56.2908H42.2703C44.0054 56.2908 45.4332 54.9895 45.4332 53.3712C45.4332 51.7695 44.0234 50.4515 42.2703 50.4515H40.6256L28.408 25.9599C29.1128 25.476 29.7273 24.8754 30.2153 24.1914H41.8546C42.451 31.015 47.4393 36.7042 54.1807 38.8564V78.2299H42.6318C39.5593 78.2299 37.0652 80.5322 37.0652 83.3685V86.4383H32.5829C29.7273 86.4383 27.4139 88.5738 27.4139 91.2098V94.363H9.35855C8.87057 94.363 8.47295 94.73 8.47295 95.1805C8.47295 95.631 8.87057 95.998 9.35855 95.998H111.04C111.528 95.998 111.925 95.631 111.925 95.1805C111.925 94.73 111.528 94.363 111.04 94.363H93.0206V91.2098C93.0206 88.5738 90.7072 86.4383 87.8516 86.4383H83.3693V83.3685C83.3693 80.5322 80.8752 78.2299 77.8027 78.2299H66.2538V38.8564C73.0133 36.6875 77.9835 31.015 78.5799 24.1914H90.2192C90.7072 24.8754 91.3217 25.476 92.0446 25.9599L79.7908 50.4515H78.1461C76.4111 50.4515 74.9833 51.7529 74.9833 53.3712C74.9833 54.9728 76.393 56.2908 78.1461 56.2908H78.4714C79.357 64.4825 86.7852 70.8056 95.8039 70.8056C104.804 70.8056 112.251 64.4825 113.136 56.2908H114.546C116.281 56.2908 117.709 54.9895 117.709 53.3712C117.691 51.7695 116.263 50.4515 114.528 50.4515ZM91.2313 91.2265V94.3797H29.149V91.2265C29.149 89.4914 30.6852 88.0899 32.5468 88.0899H87.8154C89.7131 88.0899 91.2313 89.4914 91.2313 91.2265ZM81.5801 83.3851V86.4549H38.8183V83.3851C38.8183 81.4498 40.5172 79.8649 42.6318 79.8649H77.7666C79.8631 79.8649 81.5801 81.4498 81.5801 83.3851ZM96.328 15.4325C99.3824 15.4325 101.877 17.7348 101.877 20.5544C101.877 22.4062 100.792 24.0246 99.1836 24.9255C98.3522 25.3926 97.3943 25.6762 96.3461 25.6762C95.3159 25.6762 94.358 25.3926 93.5266 24.9422C93.5266 24.9422 93.5266 24.9422 93.5086 24.9422C91.9 24.0412 90.7975 22.4229 90.7975 20.571C90.7795 17.7348 93.2736 15.4325 96.328 15.4325ZM52.0842 0.817549C52.03 0.717446 51.8854 0.350406 52.1926 4.76837e-05L59.5485 -8.20833C59.7654 -8.45858 60.0546 -8.49195 60.1992 -8.49195C60.3438 -8.49195 60.6329 -8.45858 60.8498 -8.20833L68.2057 4.76837e-05C68.513 0.350406 68.3684 0.717446 68.3142 0.817549C68.2599 0.917651 68.0431 1.26801 67.5551 1.26801H52.8252C52.3372 1.26801 52.1384 0.917651 52.0842 0.817549ZM56.6749 2.88633H63.7235V6.12296C62.5849 5.92276 61.4101 5.80597 60.1992 5.80597C58.9883 5.80597 57.8316 5.92276 56.6929 6.12296V2.88633H56.6749ZM18.5218 20.5544C18.5218 17.7348 21.0159 15.4325 24.0703 15.4325C27.1248 15.4325 29.6189 17.7348 29.6189 20.5544C29.6189 22.4062 28.5345 24.0246 26.9259 24.9255C26.0946 25.3926 25.1367 25.6762 24.0884 25.6762C23.0582 25.6762 22.1003 25.3926 21.269 24.9422C21.269 24.9422 21.269 24.9422 21.2509 24.9422C19.6243 24.0412 18.5218 22.4229 18.5218 20.5544ZM23.5281 69.1706C15.4855 69.1706 8.83442 63.5816 7.96689 56.2908H39.1075C38.2219 63.5816 31.5528 69.1706 23.5281 69.1706ZM43.662 53.3712C43.662 54.0719 43.0294 54.6558 42.2703 54.6558H5.87037C5.11129 54.6558 4.47872 54.0719 4.47872 53.3712C4.47872 52.6705 5.11129 52.0865 5.87037 52.0865H8.05726H40.0653H42.2522C43.0294 52.0865 43.662 52.6705 43.662 53.3712ZM38.6737 50.4515H9.46699L21.287 26.7774C22.1546 27.111 23.0763 27.2946 24.0703 27.2946C25.0644 27.2946 26.0042 27.111 26.8717 26.7774L38.6737 50.4515ZM31.0105 18.5523H42.3787C42.0173 19.837 41.8004 21.1883 41.7823 22.5731H31.0105C31.2274 21.9391 31.372 21.2718 31.372 20.571C31.372 19.8536 31.2274 19.1863 31.0105 18.5523ZM64.4464 78.2299H55.9519V39.3402C57.3074 39.6405 58.7352 39.8073 60.1992 39.8073C61.6631 39.8073 63.0909 39.6238 64.4464 39.3235V78.2299ZM60.1992 38.189C51.2347 38.189 43.915 31.599 43.5716 23.3906C43.5716 23.1904 43.5355 23.0069 43.5355 22.8067C43.5355 14.3313 50.9998 7.44098 60.1811 7.44098C69.3624 7.44098 76.8448 14.3313 76.8448 22.8067C76.8629 31.282 69.3805 38.189 60.1992 38.189ZM78.616 22.5731C78.598 21.1883 78.3811 19.837 78.0196 18.5523H89.3878C89.1709 19.1863 89.0263 19.8536 89.0263 20.5544C89.0263 21.2551 89.1709 21.9224 89.3878 22.5564H78.616V22.5731ZM93.5447 26.7941C94.4122 27.1277 95.334 27.3112 96.328 27.3112C97.3221 27.3112 98.2619 27.1277 99.1294 26.7941L110.931 50.4682H81.7247L93.5447 26.7941ZM95.7858 69.1706C87.7612 69.1706 81.0921 63.5816 80.2246 56.2908H111.365C110.498 63.5816 103.828 69.1706 95.7858 69.1706ZM114.528 54.6558H78.128C77.369 54.6558 76.7364 54.0719 76.7364 53.3712C76.7364 52.6705 77.369 52.0865 78.128 52.0865H114.51C115.269 52.0865 115.902 52.6705 115.902 53.3712C115.92 54.0886 115.287 54.6558 114.528 54.6558Z" fill="#F74949"/>
<path d="M60.1991 10.2939C52.7167 10.2939 46.644 15.8997 46.644 22.8067C46.644 29.7138 52.7167 35.3362 60.1991 35.3362C67.6815 35.3362 73.7723 29.7138 73.7723 22.8067C73.7542 15.8997 67.6815 10.2939 60.1991 10.2939ZM60.1991 33.7012C53.6927 33.7012 48.4152 28.8128 48.4152 22.8067C48.4152 16.8006 53.7108 11.9289 60.1991 11.9289C66.7056 11.9289 72.0011 16.8173 72.0011 22.8067C71.983 28.8128 66.7056 33.7012 60.1991 33.7012Z" fill="#F74949"/>
<path d="M60.1992 18.619C61.2113 18.619 62.0246 19.3697 62.0246 20.304C62.0246 20.7545 62.4222 21.1215 62.9102 21.1215C63.3982 21.1215 63.7958 20.7545 63.7958 20.304C63.7958 18.7524 62.6391 17.4678 61.0848 17.1007V16.2999C61.0848 15.8495 60.6871 15.4824 60.1992 15.4824C59.7112 15.4824 59.3136 15.8495 59.3136 16.2999V17.1007C57.7592 17.4678 56.6025 18.7524 56.6025 20.304C56.6025 22.1392 58.2111 23.6241 60.1992 23.6241C61.2113 23.6241 62.0246 24.3748 62.0246 25.3091C62.0246 26.2434 61.2113 26.9942 60.1992 26.9942C59.187 26.9942 58.3737 26.2434 58.3737 25.3091C58.3737 24.8587 57.9761 24.4916 57.4881 24.4916C57.0002 24.4916 56.6025 24.8587 56.6025 25.3091C56.6025 26.8607 57.7592 28.1453 59.3136 28.5124V29.3132C59.3136 29.7637 59.7112 30.1307 60.1992 30.1307C60.6871 30.1307 61.0848 29.7637 61.0848 29.3132V28.5124C62.6391 28.1453 63.7958 26.8607 63.7958 25.3091C63.7958 23.4739 62.1872 21.9891 60.1992 21.9891C59.187 21.9891 58.3737 21.2383 58.3737 20.304C58.3737 19.3697 59.187 18.619 60.1992 18.619Z" fill="#F74949"/>
</g>
<defs>
<clipPath id="clip0_5_202">
<path d="M0.556641 30C0.556641 13.4315 13.9881 0 30.5566 0H87.5025C104.071 0 117.503 13.4315 117.503 30V68C117.503 84.5685 104.071 98 87.5025 98H30.5567C13.9881 98 0.556641 84.5685 0.556641 68V30Z" fill="white"/>
</clipPath>
</defs>
</svg>
