<svg width="30" height="30" viewBox="0 0 30 30" fill="none" xmlns="http://www.w3.org/2000/svg">
<path d="M25.4803 29.2122H25.6303V29.0622V4.58203V4.43203H25.4803H5.17969H5.02969V4.58203V29.0622V29.2122H5.17969H25.4803ZM24.1362 27.718H6.52384V5.92619H24.1362V27.718Z" fill="#F74949" stroke="#F74949" stroke-width="0.3"/>
<path d="M21.8979 5.92662H22.0479V5.77662V1V0.85H21.8979H8.76221H8.61221V1V5.77662V5.92662H8.76221H21.8979ZM20.5538 4.43246H10.1064V2.34415H20.5538V4.43246Z" fill="#F74949" stroke="#F74949" stroke-width="0.3"/>
<path d="M9.80654 24.2857C9.80654 24.6988 10.1406 25.0328 10.5536 25.0328C10.9666 25.0328 11.3007 24.6988 11.3007 24.2857V9.3588C11.3007 8.94577 10.9666 8.61172 10.5536 8.61172C10.1406 8.61172 9.80654 8.94577 9.80654 9.3588V24.2857Z" fill="#F74949" stroke="#F74949" stroke-width="0.3"/>
<path d="M14.5829 24.2857C14.5829 24.6988 14.917 25.0328 15.33 25.0328C15.743 25.0328 16.0771 24.6988 16.0771 24.2857V9.3588C16.0771 8.94577 15.743 8.61172 15.33 8.61172C14.917 8.61172 14.5829 8.94577 14.5829 9.3588V24.2857Z" fill="#F74949" stroke="#F74949" stroke-width="0.3"/>
<path d="M19.3598 24.2857C19.3598 24.6988 19.6938 25.0328 20.1068 25.0328C20.5199 25.0328 20.8539 24.6988 20.8539 24.2857V9.3588C20.8539 8.94577 20.5199 8.61172 20.1068 8.61172C19.6938 8.61172 19.3598 8.94577 19.3598 9.3588V24.2857Z" fill="#F74949" stroke="#F74949" stroke-width="0.3"/>
<path d="M29.8097 4.58203V4.43203H29.6597H1H0.85V4.58203V5.77619V5.92619H1H29.6597H29.8097V5.77619V4.58203Z" fill="#F74949" stroke="#F74949" stroke-width="0.3"/>
</svg>
