<svg width="86" height="82" viewBox="0 0 86 82" fill="none" xmlns="http://www.w3.org/2000/svg">
<path d="M43.731 41.3305L60.458 25.2529C60.6077 25.109 60.7263 24.9383 60.8073 24.7504C60.8883 24.5624 60.93 24.361 60.93 24.1576C60.93 23.9542 60.8883 23.7528 60.8073 23.5649C60.7263 23.3769 60.6077 23.2062 60.458 23.0624C60.3084 22.9185 60.1307 22.8044 59.9352 22.7266C59.7397 22.6487 59.5301 22.6087 59.3185 22.6087C59.1069 22.6087 58.8973 22.6487 58.7018 22.7266C58.5063 22.8044 58.3286 22.9185 58.179 23.0624L41.452 38.9747L24.725 22.897C24.5754 22.7532 24.3977 22.6391 24.2022 22.5613C24.0067 22.4834 23.7971 22.4434 23.5855 22.4434C23.3739 22.4434 23.1643 22.4834 22.9688 22.5613C22.7733 22.6391 22.5956 22.7532 22.446 22.897C22.2964 23.0409 22.1777 23.2116 22.0967 23.3995C22.0157 23.5875 21.974 23.7889 21.974 23.9923C21.974 24.1957 22.0157 24.3971 22.0967 24.585C22.1777 24.773 22.2964 24.9437 22.446 25.0876L39.173 41.3305L22.446 57.2428C22.2939 57.3853 22.173 57.5556 22.0904 57.7437C22.0079 57.9318 21.9653 58.1339 21.9653 58.3381C21.9653 58.5422 22.0079 58.7443 22.0904 58.9324C22.173 59.1205 22.2939 59.2908 22.446 59.4333C22.5876 59.5817 22.7607 59.699 22.9536 59.7774C23.1465 59.8559 23.3547 59.8936 23.564 59.888C23.7798 59.8942 23.9946 59.857 24.1945 59.7787C24.3945 59.7004 24.5752 59.5827 24.725 59.4333L41.452 43.3557L58.179 59.4333C58.3206 59.5817 58.4937 59.699 58.6866 59.7774C58.8795 59.8559 59.0877 59.8936 59.297 59.888C59.5132 59.8968 59.7287 59.8608 59.9291 59.7824C60.1294 59.7039 60.3099 59.5849 60.458 59.4333C60.6101 59.2908 60.731 59.1205 60.8136 58.9324C60.8962 58.7443 60.9387 58.5422 60.9387 58.3381C60.9387 58.1339 60.8962 57.9318 60.8136 57.7437C60.731 57.5556 60.6101 57.3853 60.458 57.2428L43.731 41.3305Z" fill="#ECECEC"/>
</svg>
