<svg width="72" height="67" viewBox="0 0 72 67" fill="none" xmlns="http://www.w3.org/2000/svg">
<path d="M63.4379 23.9415L40.7879 6.81459C38.0129 4.71805 33.9869 4.71805 31.2119 6.81459L8.56489 23.9387C7.76989 24.5389 7.31689 25.4266 7.31689 26.3758V58.6C7.31689 60.3308 8.83189 61.7546 10.6919 61.7546H25.8779C27.7379 61.7546 29.2529 60.3308 29.2529 58.6V38.2041H42.7499V58.6C42.7499 60.3308 44.2649 61.7546 46.1249 61.7546H61.3109C63.1709 61.7546 64.6859 60.3308 64.6859 58.6V26.3758C64.6829 25.4266 64.2299 24.5389 63.4379 23.9415ZM61.3079 58.6168H46.1219V38.1901C46.1219 36.4593 44.6069 35.0663 42.7469 35.0663H29.2499C27.3899 35.0663 25.8749 36.4593 25.8749 38.1901V58.6168H10.6919V26.3758L33.3419 9.25172C34.8809 8.0848 37.1219 8.08759 38.6609 9.25172L61.3109 26.3758L61.3079 58.6168Z" fill="#ECECEC"/>
</svg>
