<svg width="56" height="40" viewBox="0 0 56 40" fill="none" xmlns="http://www.w3.org/2000/svg">
<path d="M53.9104 4.56995H2.08955C1.53537 4.56995 1.00388 4.32921 0.612016 3.90069C0.220149 3.47218 0 2.89099 0 2.28497C0 1.67896 0.220149 1.09777 0.612016 0.669251C1.00388 0.240736 1.53537 0 2.08955 0H53.9104C54.4646 0 54.9961 0.240736 55.388 0.669251C55.7799 1.09777 56 1.67896 56 2.28497C56 2.89099 55.7799 3.47218 55.388 3.90069C54.9961 4.32921 54.4646 4.56995 53.9104 4.56995Z" fill="#ECECEC"/>
<path d="M53.9104 21.8141H2.08955C1.53537 21.8141 1.00388 21.5733 0.612016 21.1448C0.220149 20.7163 0 20.1351 0 19.5291C0 18.9231 0.220149 18.3419 0.612016 17.9134C1.00388 17.4849 1.53537 17.2441 2.08955 17.2441H53.9104C54.4646 17.2441 54.9961 17.4849 55.388 17.9134C55.7798 18.3419 56 18.9231 56 19.5291C56 20.1351 55.7798 20.7163 55.388 21.1448C54.9961 21.5733 54.4646 21.8141 53.9104 21.8141Z" fill="#ECECEC"/>
<path d="M53.9104 39.0582H2.08955C1.53537 39.0582 1.00388 38.8175 0.612016 38.389C0.220149 37.9605 0 37.3793 0 36.7733C0 36.1672 0.220149 35.586 0.612016 35.1575C1.00388 34.729 1.53537 34.4883 2.08955 34.4883H53.9104C54.4646 34.4883 54.9961 34.729 55.388 35.1575C55.7798 35.586 56 36.1672 56 36.7733C56 37.3793 55.7798 37.9605 55.388 38.389C54.9961 38.8175 54.4646 39.0582 53.9104 39.0582Z" fill="#ECECEC"/>
</svg>
