<svg width="70" height="70" viewBox="0 0 70 70" fill="none" xmlns="http://www.w3.org/2000/svg">
<path d="M12.7812 58.0616L12.77 58.0469L12.7567 58.034C6.71714 52.1998 2.94238 44.0386 2.94238 35.0001C2.94238 17.3239 17.3226 2.94238 35.0001 2.94238C52.6775 2.94238 67.0578 17.3239 67.0578 35.0001C67.0578 44.0386 63.283 52.1998 57.2435 58.034L57.2302 58.0469L57.2189 58.0616C57.0956 58.2222 56.9489 58.3534 56.7735 58.466L56.7548 58.4779L56.7386 58.493C51.0174 63.791 43.3922 67.0578 35.0001 67.0578C26.6079 67.0578 18.9828 63.791 13.2616 58.493L13.2453 58.4779L13.2267 58.466C13.0512 58.3534 12.9046 58.2222 12.7812 58.0616ZM56.9183 52.5764L57.0587 53.0294L57.3531 52.6575C61.2013 47.7962 63.5193 41.6686 63.5193 35.0001C63.5193 19.2748 50.7267 6.48084 35.0001 6.48084C19.2734 6.48084 6.48084 19.2748 6.48084 35.0001C6.48084 41.6686 8.79887 47.7962 12.6471 52.6575L12.9414 53.0294L13.0819 52.5764C14.803 47.0259 19.726 42.6544 26.4522 40.6378L26.9369 40.4925L26.527 40.1958C22.8902 37.5639 20.5134 33.3014 20.5134 28.4862C20.5134 20.5095 27.011 14.0192 35.0001 14.0192C42.9892 14.0192 49.4868 20.5095 49.4868 28.4862C49.4868 33.3014 47.1099 37.5639 43.4732 40.1958L43.0633 40.4925L43.548 40.6378C50.2742 42.6544 55.1971 47.0259 56.9183 52.5764ZM15.9876 56.0657L15.9774 56.1899L16.0704 56.2728C21.111 60.7633 27.7316 63.5193 35.0001 63.5193C42.2685 63.5193 48.8891 60.7633 53.9297 56.2728L54.0228 56.1899L54.0126 56.0657C53.3901 48.4739 45.3671 42.9532 35.0001 42.9532C24.6331 42.9532 16.61 48.4739 15.9876 56.0657ZM35.0001 17.5577C28.9625 17.5577 24.0518 22.4596 24.0518 28.4862C24.0518 34.5128 28.9625 39.4147 35.0001 39.4147C41.0377 39.4147 45.9483 34.5128 45.9483 28.4862C45.9483 22.4596 41.0377 17.5577 35.0001 17.5577Z" fill="#ECECEC" stroke="#101710" stroke-width="0.5"/>
</svg>
