<?xml version="1.0" encoding="UTF-8"?>
<svg id="Calque_1" xmlns="http://www.w3.org/2000/svg" version="1.1" viewBox="0 0 167.38 50">
  <!-- Generator: Adobe Illustrator 29.3.1, SVG Export Plug-In . SVG Version: 2.1.0 Build 151)  -->
  <defs>
    <style>
      .st0 {
        fill: #00ec86;
      }

      .st1 {
        fill: #f74949;
      }

      .st2 {
        fill: #262a29;
      }
    </style>
  </defs>
  <g>
    <circle class="st1" cx="138.95" cy="31.63" r="10.7"/>
    <circle class="st0" cx="152.54" cy="15.13" r="10.7"/>
  </g>
  <g>
    <path class="st2" d="M12.41,26.98v15.09h-5.89V6.63h23.03v4.84H12.41v10.69h14.99v4.82h-14.99Z"/>
    <path class="st2" d="M51.45,4.69v32.57h7.98v4.82h-22.17v-4.82h8.32V9.53h-8.32v-4.84h14.19Z"/>
    <path class="st2" d="M65.81,23.34c.55-1.63,1.35-3.05,2.41-4.25,1.04-1.2,2.31-2.14,3.82-2.82s3.23-1.02,5.16-1.02,3.66.34,5.17,1.02,2.8,1.62,3.86,2.82c1.04,1.2,1.83,2.62,2.39,4.25s.83,3.4.83,5.32v.51c0,1.93-.28,3.71-.83,5.33s-1.35,3.03-2.39,4.24-2.32,2.14-3.83,2.82-3.23,1.02-5.15,1.02-3.66-.34-5.18-1.02-2.81-1.62-3.85-2.82c-1.05-1.2-1.86-2.61-2.41-4.24s-.83-3.4-.83-5.33v-.51c0-1.91.28-3.69.83-5.32ZM71.18,32.53c.25,1.05.65,1.98,1.18,2.77.52.8,1.18,1.42,2,1.89s1.78.69,2.9.69,2.04-.23,2.85-.69,1.48-1.09,2-1.89.9-1.72,1.16-2.77.38-2.17.38-3.36v-.51c0-1.15-.13-2.26-.39-3.31s-.64-1.98-1.14-2.77c-.54-.8-1.2-1.43-2.01-1.9s-1.76-.71-2.88-.71-2.06.24-2.86.71-1.46,1.1-1.98,1.9c-.54.8-.93,1.72-1.18,2.77s-.38,2.16-.38,3.31v.51c0,1.18.13,2.3.38,3.36Z"/>
    <path class="st2" d="M93.08,15.74h5.26l2.43,16.14.41,3.04.54-3.04,3.43-16.14h3.82l3.43,16.09.56,3.19.46-3.21,2.36-16.07h5.28l-5.09,26.34h-4.94l-3.41-14.95-.61-3.26-.58,3.26-3.33,14.95h-4.94l-5.09-26.34Z"/>
  </g>
</svg>